<?xml version="1.0" encoding="UTF-8" standalone="no"?>
<svg
   xmlns:dc="http://purl.org/dc/elements/1.1/"
   xmlns:cc="http://creativecommons.org/ns#"
   xmlns:rdf="http://www.w3.org/1999/02/22-rdf-syntax-ns#"
   xmlns:svg="http://www.w3.org/2000/svg"
   xmlns="http://www.w3.org/2000/svg"
   xmlns:sodipodi="http://sodipodi.sourceforge.net/DTD/sodipodi-0.dtd"
   xmlns:inkscape="http://www.inkscape.org/namespaces/inkscape"
   data-v-fde0c5aa=""
   viewBox="0 0 237.4426 66.391212"
   class="iconLeftSlogan"
   version="1.1"
   id="svg21"
   sodipodi:docname="default-nomargin.svg"
   width="237.4426"
   height="66.391212"
   inkscape:version="1.0.1 (3bc2e813f5, 2020-09-07)">
  <metadata
     id="metadata25">
    <rdf:RDF>
      <cc:Work
         rdf:about="">
        <dc:format>image/svg+xml</dc:format>
        <dc:type
           rdf:resource="http://purl.org/dc/dcmitype/StillImage" />
        <dc:title></dc:title>
      </cc:Work>
    </rdf:RDF>
  </metadata>
  <sodipodi:namedview
     pagecolor="#ffffff"
     bordercolor="#666666"
     borderopacity="1"
     objecttolerance="10"
     gridtolerance="10"
     guidetolerance="10"
     inkscape:pageopacity="0"
     inkscape:pageshadow="2"
     inkscape:window-width="1920"
     inkscape:window-height="1009"
     id="namedview23"
     showgrid="false"
     fit-margin-top="0"
     fit-margin-left="0"
     fit-margin-right="0"
     fit-margin-bottom="0"
     inkscape:zoom="1.3097903"
     inkscape:cx="-148.44219"
     inkscape:cy="-49.18438"
     inkscape:window-x="1912"
     inkscape:window-y="-8"
     inkscape:window-maximized="1"
     inkscape:current-layer="svg21" />
  <!---->
  <defs
     data-v-fde0c5aa=""
     id="defs2">
    <!---->
  </defs>
  <rect
     data-v-fde0c5aa=""
     fill="#121212"
     x="0"
     y="0"
     width="237.4426"
     height="66.391212"
     class="logo-background-square"
     id="rect4"
     style="stroke-width:0.418516"
     inkscape:export-filename="G:\Temp\Loghi\CrawFish-logo\logo.png"
     inkscape:export-xdpi="828.02332"
     inkscape:export-ydpi="828.02332" />
  <defs
     data-v-fde0c5aa=""
     id="defs6">
    <!---->
  </defs>
  <g
     data-v-fde0c5aa=""
     id="dd94310a-69a6-4fcb-b887-5462e43afa1f"
     fill="#90caf9"
     transform="matrix(2.6265802,0,0,2.6265802,76.718717,8.7422585)">
    <path
       d="M 8.02,9.3 C 7.21,9.79 5.91,9.91 5.4,9.91 2.63,9.91 2.07,7.69 2.07,5.53 c 0,-3 1.09,-4.38 3.33,-4.38 0.42,0 0.93,0.07 1.4,0.17 L 7.24,3.15 C 7.92,3.15 8.48,2.73 8.48,2.04 8.48,0.66 6.47,0.46 5.4,0.46 1.99,0.46 0.42,3.01 0.42,5.6 c 0,2.59 1.34,5.14 4.98,5.14 1.17,0 2.38,-0.32 3.08,-0.83 z m 2.03,-4.83 v 6.03 h 1.32 V 7.39 c 0,-1.97 1.12,-2.92 1.79,-2.92 l 0.39,0.89 c 0.45,0 0.8,-0.32 0.8,-0.74 0,-0.42 -0.27,-0.81 -0.99,-0.81 -0.73,0 -1.63,0.61 -1.99,1.62 V 4.66 c 0,0 0.01,-0.85 -0.76,-0.85 -0.46,0 -1.02,0.1 -1.34,0.15 v 0.51 z m 7.66,6.18 c 0.69,0 1.4,-0.37 1.72,-1.05 0.2,0.79 0.74,1.05 1.23,1.05 0.27,0 0.55,-0.04 0.77,-0.15 V 10 C 21,10 20.66,9.79 20.66,9.35 V 3.96 L 20.17,3.81 19.35,4.03 C 19,3.85 18.55,3.81 18.13,3.81 c -1.76,0 -3.21,1.09 -3.21,3.76 0,2.26 1.42,3.08 2.79,3.08 z m 1.64,-2.88 c 0,1.6 -0.8,2.23 -1.5,2.23 -0.77,0 -1.57,-0.55 -1.57,-2.5 0,-2.42 1.02,-3.17 1.92,-3.17 0.42,0 0.7,0.07 1.15,0.32 z m 7.45,1.76 c 0.35,0.73 1.06,1.12 2.1,1.12 1.52,0 2.95,-0.47 2.95,-3.41 0,-0.94 -0.55,-3.43 -1.99,-3.43 -0.43,0 -0.77,0.35 -0.77,0.78 0,0.44 0.34,0.77 0.77,0.77 L 30.24,4.8 c 0.67,0.38 0.95,1.67 0.95,2.63 0,2.02 -1.12,2.69 -1.82,2.69 -0.7,0 -1.52,-0.43 -1.52,-1.71 V 4.47 c 0,0 0.01,-0.66 -0.76,-0.66 -0.46,0 -1.02,0.1 -1.34,0.15 v 0.51 h 0.78 v 3.5 c 0,1.59 -0.66,2.15 -1.29,2.15 -0.84,0 -1.37,-0.63 -1.37,-1.69 V 4.47 c 0,0 0.01,-0.66 -0.76,-0.66 -0.46,0 -1.02,0.1 -1.34,0.15 v 0.51 h 0.78 v 3.68 c 0,1.68 0.87,2.5 2.4,2.5 0.71,0 1.45,-0.33 1.85,-1.12 z m 8.8,-8.24 h 2.86 L 39.05,2.91 39.63,2.8 V 0.7 H 33 l -0.1,0.59 1.22,0.46 v 7.7 l -1.21,0.46 0.12,0.59 h 3.69 L 36.82,9.91 35.6,9.45 V 5.6 h 1.82 l 0.46,1.18 0.58,-0.1 V 3.92 L 37.88,3.82 37.42,5 H 35.6 Z M 42,0.74 c -0.42,0 -0.76,0.34 -0.76,0.76 0,0.42 0.34,0.75 0.76,0.75 0.41,0 0.76,-0.33 0.76,-0.75 0,-0.42 -0.35,-0.76 -0.76,-0.76 z m 0.7,3.73 c 0,0 0.01,-0.66 -0.76,-0.66 -0.46,0 -1.07,0.1 -1.4,0.15 v 0.51 h 0.84 v 6.03 h 1.32 z m 4.23,-0.14 c 0.39,0 0.71,0.07 0.96,0.16 l 0.44,1.15 c 0.39,0 0.71,-0.32 0.71,-0.7 0,-0.78 -1.01,-1.13 -2.04,-1.13 -1.53,0 -2.52,0.73 -2.52,1.86 0,1.11 0.84,1.58 1.78,2.02 0.78,0.35 1.76,0.68 1.76,1.37 0,0.67 -0.64,1.06 -1.54,1.06 -0.29,0 -0.77,-0.14 -1.04,-0.31 L 45.11,8.86 c -0.37,0 -0.67,0.27 -0.67,0.63 0,0.8 0.74,1.16 2.15,1.16 1.63,0 2.55,-0.77 2.55,-1.96 0,-1.23 -1.06,-1.7 -2.06,-2.12 -0.66,-0.28 -1.5,-0.63 -1.5,-1.38 0,-0.47 0.52,-0.86 1.35,-0.86 z M 50.68,0.7 v 9.8 H 52 V 6.9 c 0,-2.01 0.98,-2.43 1.61,-2.43 0.63,0 1.2,0.25 1.2,1.27 v 3.64 c 0,0.98 0.69,1.27 1.2,1.27 0.38,0 0.75,-0.05 0.94,-0.15 V 10 C 56.52,10 56.13,9.79 56.13,9.35 V 6.1 c 0,-1.48 -0.86,-2.29 -2.4,-2.29 -0.82,0 -1.66,0.54 -1.99,1.69 L 52,4.17 V 0.7 c 0,0 0.01,-0.66 -0.76,-0.66 -0.46,0 -1.08,0.1 -1.4,0.16 v 0.5 z"
       id="path8" />
  </g>
  <defs
     data-v-fde0c5aa=""
     id="defs11">
    <!---->
  </defs>
  <g
     data-v-fde0c5aa=""
     id="c45417e3-aac9-4932-bfa0-f9493f996df6"
     stroke="none"
     fill="#90caf9"
     transform="matrix(0.59935493,0,0,0.59935493,5.6083933,2.9305385)">
    <path
       d="M 97.5,34.5 C 92.1,29.1 73.7,42 67.1,48.6 c -0.6,0.6 -1.2,1.3 -1.6,2.1 h -2.7 c 1.2,-1.7 1.3,-4 0.3,-5.8 L 93.8,14.2 c 0.6,-0.6 0.6,-1.5 0,-2.1 -0.6,-0.6 -1.5,-0.6 -2.1,0 L 60.9,42.7 C 60,42.3 59,42 58,42 58,41 57.8,40 57.3,39.1 L 88.1,8.5 C 88.7,7.9 88.7,7 88.1,6.4 87.5,5.8 86.6,5.8 86,6.4 L 55.2,37.1 c -1.8,-1 -4.1,-0.9 -5.8,0.3 v -2.7 c 0.7,-0.5 1.4,-1 2.1,-1.6 C 55.6,29 60.2,22.8 63.2,17.1 67.1,9.8 67.9,5 65.6,2.6 60.2,-2.8 41.8,10 35.1,16.7 c -4.5,4.5 -4.5,11.8 0,16.3 0.4,0.4 0.8,0.7 1.2,1 v 13.4 c -1.6,1.7 -2.3,4 -2.2,6.2 -1.6,-0.6 -3.5,-0.5 -5.3,1.3 -1.9,1.9 -2.5,4.5 -2,6.9 -1.3,0.1 -2.6,0.6 -3.6,1.6 -1.5,1.5 -1.9,3.5 -1.4,5.4 -0.8,0.1 -1.6,0.4 -2.2,1 -0.8,0.8 -1.3,2 -1.3,3.2 v 0.1 c -3.4,-0.9 -7.1,-0.5 -12.2,2.4 -3,1.7 -4.6,3.6 -4.9,5.7 -0.3,2.3 1.1,3.8 1.3,4 L 4,86.7 c -0.8,2.6 -0.2,5.5 1.9,7.5 1.4,1.4 3.3,2.2 5.3,2.2 0.8,0 1.5,-0.1 2.2,-0.3 l 1.3,1.3 c 0.1,0.1 1.4,1.3 3.3,1.3 h 0.6 c 2.1,-0.3 4,-1.9 5.7,-4.9 2.9,-5 3.3,-8.7 2.5,-12.1 H 27 c 1.2,0 2.3,-0.4 3.2,-1.3 0.6,-0.6 0.9,-1.4 1,-2.2 0.5,0.1 1,0.2 1.5,0.2 1.4,0 2.8,-0.5 3.9,-1.6 1,-1 1.5,-2.3 1.6,-3.6 0.5,0.1 1.1,0.2 1.6,0.2 1.9,0 3.8,-0.7 5.3,-2.2 1.9,-1.9 1.8,-3.8 1.4,-5 0,-0.1 -0.1,-0.2 -0.1,-0.3 h 0.4 c 2.1,0 4.1,-0.8 5.8,-2.3 H 66 c 0.3,0.4 0.6,0.8 1,1.2 2.3,2.3 5.2,3.4 8.2,3.4 2.9,0 5.9,-1.1 8.1,-3.4 6.8,-6.5 19.6,-24.9 14.2,-30.3 z m -3.7,1.6 -11.5,11.6 c -2,-1.5 -4.3,-2.3 -6.7,-2.4 6.8,-5.2 14.6,-9.1 18.2,-9.2 z M 60,45.8 c 1,1 1,2.6 0,3.5 -0.5,0.5 -1.1,0.7 -1.8,0.7 -0.7,0 -1.3,-0.3 -1.8,-0.7 -0.5,-0.5 -0.7,-1.1 -0.7,-1.8 0,-0.7 0.3,-1.3 0.7,-1.8 0.5,-0.5 1.1,-0.7 1.8,-0.7 0.7,0 1.3,0.3 1.8,0.8 z m -5.7,-5.7 c 1,1 1,2.6 0,3.5 -1,1 -2.6,1 -3.5,0 -1,-1 -1,-2.6 0,-3.5 0.5,-0.5 1.1,-0.7 1.8,-0.7 0.6,-0.1 1.2,0.2 1.7,0.7 z m 6.2,-24.5 c -1.6,2.9 -3.6,6 -5.7,8.9 -0.1,-2.4 -0.9,-4.7 -2.4,-6.6 L 63.9,6.4 c -0.1,1.8 -1,4.9 -3.4,9.2 z m -25.7,9.2 c 0,-2.3 0.9,-4.4 2.5,-6 C 41.2,14.9 47.2,10.5 52.6,7.6 56.9,5.3 60,4.3 61.8,4.3 L 49.3,16.7 c -0.3,0.3 -0.4,0.7 -0.4,1.1 0,0.4 0.2,0.8 0.4,1.1 1.6,1.6 2.5,3.8 2.5,6 0,2.3 -0.9,4.4 -2.5,6 -3.3,3.3 -8.7,3.3 -12,0 -1.6,-1.7 -2.5,-3.8 -2.5,-6.1 z m 8.5,11.5 c 1,0 2.1,-0.1 3,-0.4 v 2.3 c -1,0.4 -1.9,1 -2.7,1.8 l -4.3,4.3 v -8.8 c 1.4,0.6 2.7,0.8 4,0.8 z m -21.5,56 c -1.2,2 -2.4,3.3 -3.5,3.4 -0.9,0.1 -1.5,-0.4 -1.5,-0.4 L 16,94.5 c 0.1,-0.1 0.3,-0.2 0.4,-0.3 1,-1 1.7,-2.2 2,-3.6 0.2,-0.8 -0.3,-1.6 -1.1,-1.8 -0.8,-0.2 -1.6,0.3 -1.8,1.1 -0.2,0.8 -0.6,1.6 -1.2,2.1 -0.9,0.9 -2,1.3 -3.2,1.3 -1.2,0 -2.3,-0.5 -3.2,-1.3 -1.8,-1.8 -1.8,-4.6 0,-6.4 0.6,-0.6 1.3,-1 2.1,-1.2 0.8,-0.2 1.3,-1 1.1,-1.8 -0.2,-0.8 -1,-1.3 -1.8,-1.1 -1.4,0.3 -2.6,1 -3.6,2 -0.1,0.1 -0.2,0.2 -0.3,0.4 L 4.5,83 c 0,0 -0.6,-0.6 -0.4,-1.5 0.2,-1.1 1.4,-2.3 3.4,-3.5 6.6,-3.8 9.9,-2.6 13.2,-0.8 l 1.8,1.8 c 1.9,3.4 3.1,6.7 -0.7,13.3 z m 6.4,-14 c -0.6,0.6 -1.5,0.6 -2.1,0 L 21.8,74 c -0.3,-0.3 -0.4,-0.7 -0.4,-1.1 0,-0.4 0.2,-0.8 0.4,-1.1 0.2,-0.2 0.5,-0.2 0.7,0 l 5.7,5.7 c 0.2,0.3 0.2,0.6 0,0.8 z m 6.4,-3.5 c -1,1 -2.6,1 -3.5,0 l -5.7,-5.7 c -1,-1 -1,-2.6 0,-3.5 0.5,-0.5 1.1,-0.7 1.8,-0.7 0.7,0 1.3,0.2 1.8,0.7 l 5.7,5.7 c 0.8,0.9 0.8,2.5 -0.1,3.5 z m 7,-10.6 c 2.9,2.9 2.3,4 1.4,5 -1.8,1.8 -4.6,1.8 -6.4,0 L 31,63.4 c -1.8,-1.8 -1.8,-4.6 0,-6.4 0.9,-0.9 2,-1.5 4.9,1.4 l 0.7,0.7 4.3,4.3 z M 43,61.3 38.7,57 c -2.1,-2.1 -2.1,-5.6 0,-7.8 l 7.1,-7.1 c 0.3,-0.3 0.7,-0.6 1,-0.8 l 0.2,0.2 c -0.1,1.5 0.4,3 1.6,4.2 1.1,1.1 2.5,1.6 3.9,1.6 h 0.2 v 0.2 c 0,1.5 0.6,2.9 1.6,3.9 1,1 2.4,1.6 3.9,1.6 0.2,0 0.4,0 0.6,-0.1 -0.3,0.5 -0.6,0.9 -0.9,1.3 l -7.1,7.1 c -2.1,2.2 -5.6,2.2 -7.8,0 z M 55.7,60.7 60,56.4 c 0.8,-0.8 1.4,-1.7 1.8,-2.7 h 2.3 c -0.6,2.3 -0.5,4.8 0.3,7 z m 19.6,4.6 c -2.3,0 -4.4,-0.9 -6,-2.5 -3.3,-3.3 -3.3,-8.7 0,-12 1.6,-1.6 3.7,-2.5 6,-2.5 2.3,0 4.4,0.9 6,2.5 0.6,0.6 1.5,0.6 2.1,0 L 95.9,38.3 c 0,4.8 -7.1,17 -14.6,24.6 -1.6,1.5 -3.7,2.4 -6,2.4 z"
       id="path13" />
  </g>
  <defs
     data-v-fde0c5aa=""
     id="defs16">
    <!---->
  </defs>
  <g
     data-v-fde0c5aa=""
     id="09f4f05d-264d-46f9-92e1-642a756df9d5"
     fill="#90caf9"
     transform="matrix(0.4040833,0,0,0.4040833,77.668327,45.844549)">
    <path
       d="M 0.39,12.41 0.38,11.87 h 0.17 v 0 q 0.39,0 0.52,-0.14 v 0 0 q 0.12,-0.16 0.45,-0.9 v 0 L 2.43,8.82 3.01,7.53 v 0 Q 3.27,6.97 3.32,6.86 v 0 0 Q 3.38,6.7 3.44,6.6 v 0 0 Q 3.49,6.51 3.5,6.45 v 0 L 3.6,6.21 5.02,2.74 h 0.3 v 0 q 0.85,2.24 3.04,7.51 v 0 0 Q 8.81,11.34 9,11.64 v 0 0 q 0.14,0.23 0.58,0.23 v 0 H 9.79 L 9.78,12.41 H 6.58 L 6.6,11.87 h 0.41 v 0 q 0.62,0 0.62,-0.17 v 0 0 q 0,-0.07 -0.14,-0.43 v 0 L 6.45,8.72 H 3.21 L 2.1,11.18 v 0 Q 1.96,11.5 1.96,11.63 v 0 0 q 0,0.16 0.1,0.2 v 0 0 q 0.09,0.04 0.48,0.04 v 0 h 0.57 v 0.54 z M 4.89,4.79 3.47,8.1 H 6.21 Z M 17.56,3.64 17.52,3.08 h 3.78 v 0 q 1.32,0 2.19,0.11 v 0 0 q 0.82,0.1 1.51,0.5 v 0 0 q 0.95,0.58 1.46,1.55 v 0 0 q 0.49,0.97 0.49,2.15 v 0 0 q 0,0.66 -0.15,1.26 v 0 0 q -0.15,0.64 -0.54,1.33 v 0 0 q -0.43,0.75 -0.99,1.23 v 0 0 q -0.63,0.55 -1.6,0.87 v 0 0 q -1.01,0.33 -2.28,0.33 v 0 h -3.62 l -0.01,-0.54 h 0.38 v 0 q 0.52,0 0.62,-0.08 v 0 0 q 0.11,-0.09 0.11,-0.54 v 0 -7.11 0 q 0,-0.37 -0.1,-0.43 v 0 0 Q 18.66,3.64 18.15,3.64 v 0 z M 20,4.39 v 6.83 0 q 0,0.45 0.17,0.55 v 0 0 q 0.15,0.1 1.02,0.1 v 0 0 q 1.05,0 1.85,-0.26 v 0 0 q 0.85,-0.26 1.29,-0.62 v 0 0 q 0.49,-0.41 0.8,-0.94 v 0 0 q 0.3,-0.53 0.43,-1.09 v 0 0 q 0.12,-0.55 0.12,-1.14 v 0 0 q 0,-0.79 -0.26,-1.48 v 0 0 Q 25.15,5.65 24.62,5.05 v 0 0 Q 24.09,4.46 23.18,4.09 v 0 0 Q 22.26,3.73 21.1,3.73 v 0 h -0.52 v 0 q -0.37,0 -0.47,0.12 v 0 0 Q 20,3.99 20,4.39 Z M 35.41,3.64 H 34.92 V 3.08 h 3.51 l -0.01,0.56 h -0.74 v 0 q -0.34,0 -0.34,0.18 v 0 0 q 0,0.16 0.2,0.66 v 0 l 2.6,6.46 2.94,-6.76 v 0 q 0.07,-0.21 0.08,-0.26 v 0 0 q 0,-0.13 -0.1,-0.18 v 0 0 Q 42.96,3.68 42.81,3.65 v 0 0 Q 42.73,3.64 42.46,3.64 v 0 H 42.02 L 41.99,3.08 h 2.84 L 44.8,3.64 h -0.4 v 0 q -0.32,0 -0.48,0.19 v 0 0 q -0.08,0.1 -0.55,1.11 v 0 0 q -0.21,0.52 -0.28,0.63 v 0 l -3.13,7.06 h -0.24 l -3.24,-7.9 v 0 Q 36.16,3.93 36.01,3.79 v 0 0 Q 35.85,3.63 35.41,3.64 Z m 17.17,8.77 -0.01,-0.54 h 0.17 v 0 q 0.39,0 0.52,-0.14 v 0 0 q 0.12,-0.16 0.46,-0.9 v 0 L 54.63,8.82 55.2,7.53 v 0 q 0.27,-0.56 0.31,-0.67 v 0 0 Q 55.58,6.7 55.63,6.6 v 0 0 q 0.05,-0.09 0.06,-0.15 v 0 l 0.1,-0.24 1.43,-3.47 h 0.29 v 0 q 0.86,2.24 3.04,7.51 v 0 0 q 0.45,1.09 0.65,1.39 v 0 0 q 0.13,0.23 0.57,0.23 v 0 h 0.21 l -0.01,0.54 h -3.19 l 0.01,-0.54 h 0.42 v 0 q 0.61,0 0.61,-0.17 v 0 0 q 0,-0.07 -0.14,-0.43 v 0 L 58.65,8.72 H 55.4 l -1.11,2.46 v 0 q -0.14,0.32 -0.14,0.45 v 0 0 q 0,0.16 0.1,0.2 v 0 0 q 0.1,0.04 0.48,0.04 v 0 h 0.57 v 0.54 z m 4.5,-7.62 -1.41,3.31 h 2.74 z M 69.73,3.64 69.71,3.08 h 2.18 l 5.73,7.4 v -6.34 0 q 0,-0.33 -0.15,-0.42 v 0 0 Q 77.31,3.64 76.86,3.64 v 0 h -0.5 l 0.03,-0.56 h 2.98 v 0.56 h -0.32 v 0 q -0.46,0 -0.61,0.11 v 0 0 q -0.15,0.11 -0.15,0.5 v 0 8.07 0.15 0 q 0,0.05 -0.02,0.1 v 0 0 q -0.01,0.04 -0.05,0.07 v 0 0 q -0.01,0.01 -0.06,0.01 v 0 h -0.2 -0.06 -0.02 l -0.03,-0.01 v 0 q -0.03,0 -0.04,-0.01 v 0 0 Q 77.79,12.61 77.79,12.6 v 0 0 q 0,-0.02 -0.01,-0.03 v 0 0 Q 77.75,12.54 77.72,12.5 v 0 0 q -0.01,-0.02 -0.03,-0.05 v 0 0 Q 77.67,12.41 77.66,12.4 v 0 l -6.11,-7.84 0.07,6.66 v 0 q 0,0.45 0.16,0.55 v 0 0 q 0.16,0.1 0.87,0.1 v 0 h 0.24 v 0.54 h -2.94 v -0.54 h 0.43 v 0 q 0.37,0 0.48,-0.11 v 0 0 q 0.1,-0.1 0.1,-0.51 v 0 V 3.8 L 70.82,3.64 Z m 17.76,4.38 v 0 0 q 0,-1.16 0.47,-2.19 v 0 0 q 0.47,-0.98 1.22,-1.56 v 0 0 q 0.75,-0.58 1.64,-0.9 v 0 0 q 0.9,-0.32 1.74,-0.32 v 0 0 q 0.87,0 1.54,0.11 v 0 0 q 0.63,0.1 0.92,0.21 v 0 0 q 0.31,0.11 0.34,0.11 v 0 0 q 0.17,0 0.19,-0.07 v 0 0 q 0.03,-0.08 0.03,-0.32 v 0 -0.12 h 0.53 v 0 q 0.04,1.33 0.17,2.67 v 0 l -0.5,0.01 v 0 Q 95.75,5.4 95.74,5.26 v 0 0 q 0,-0.06 -0.01,-0.13 v 0 0 Q 95.72,5.07 95.72,5.02 v 0 0 Q 95.71,4.98 95.71,4.95 v 0 0 Q 95.68,4.84 95.68,4.74 v 0 0 q 0,-0.06 -0.04,-0.15 v 0 0 q 0,-0.02 -0.03,-0.04 v 0 0 Q 95.58,4.52 95.58,4.5 v 0 0 Q 95.55,4.44 95.48,4.41 v 0 0 Q 95.44,4.38 95.42,4.37 v 0 0 Q 95.39,4.36 95.36,4.35 v 0 0 q -0.01,0 -0.04,-0.02 v 0 0 Q 95.3,4.31 95.26,4.29 v 0 0 Q 95.22,4.27 95.18,4.25 v 0 0 Q 94.95,4.16 94.92,4.14 v 0 0 Q 94.58,3.96 93.93,3.83 v 0 0 Q 93.26,3.71 92.6,3.71 v 0 0 q -1.72,0 -2.82,1.13 v 0 0 q -1.1,1.15 -1.1,2.78 v 0 0 q 0,1.73 1.22,3.07 v 0 0 q 1.2,1.33 3.02,1.33 v 0 0 q 1.01,0 1.95,-0.53 v 0 0 q 0.95,-0.55 0.98,-0.91 v 0 l 0.04,-1.17 h 0.49 l -0.08,2.04 v 0 q -0.07,0.04 -0.2,0.12 v 0 0 q -0.06,0.03 -0.52,0.28 v 0 0 q -0.38,0.2 -0.82,0.38 v 0 0 q -0.36,0.16 -1.01,0.28 v 0 0 q -0.61,0.12 -1.18,0.13 v 0 0 q -2.38,0 -3.74,-1.25 v 0 0 Q 87.49,10.14 87.49,8.02 Z m 16.94,-4.38 -0.02,-0.56 h 7.21 v 0 q 0.02,1.06 0.07,2.2 v 0 l -0.54,0.02 v 0 q -0.02,-0.64 -0.07,-1.05 v 0 0 q -0.04,-0.36 -0.1,-0.45 v 0 0 q -0.05,-0.09 -0.17,-0.11 v 0 0 q -0.1,-0.01 -0.68,-0.01 v 0 h -2.38 v 0 q -0.55,0 -0.69,0.09 v 0 0 q -0.13,0.09 -0.13,0.56 v 0 1.95 0 q 0,0.41 0.06,0.48 v 0 0 q 0.07,0.08 0.41,0.08 v 0 h 2.11 v 0 q 0.36,0 0.45,-0.11 v 0 0 q 0.08,-0.1 0.08,-0.59 v 0 -0.53 l 0.52,0.02 v 3.34 h -0.52 v -0.73 0 q 0,-0.58 -0.07,-0.67 v 0 0 q -0.08,-0.11 -0.43,-0.11 v 0 h -2.1 v 0 q -0.33,0 -0.42,0.08 v 0 0 q -0.09,0.09 -0.09,0.35 v 0 3.31 0 q 0,0.37 0.09,0.47 v 0 0 q 0.09,0.1 0.36,0.1 v 0 0 q 2.92,-0.02 3.44,-0.08 v 0 0 q 0.52,-0.06 0.61,-0.31 v 0 -0.02 l 0.01,-0.01 0.23,-1.18 0.47,0.08 -0.35,2.16 h -7.1 v -0.54 h 0.37 v 0 q 0.56,0 0.64,-0.07 v 0 0 q 0.1,-0.08 0.1,-0.47 v 0 -7.09 0 q 0,-0.42 -0.15,-0.51 v 0 0 q -0.17,-0.09 -0.83,-0.09 v 0 z m 15.63,0 -0.04,-0.56 h 3.78 v 0 q 1.32,0 2.19,0.11 v 0 0 q 0.82,0.1 1.51,0.5 v 0 0 q 0.95,0.58 1.45,1.55 v 0 0 q 0.5,0.97 0.5,2.15 v 0 0 q 0,0.66 -0.15,1.26 v 0 0 q -0.16,0.64 -0.55,1.33 v 0 0 q -0.43,0.75 -0.99,1.23 v 0 0 q -0.63,0.55 -1.6,0.87 v 0 0 q -1,0.33 -2.27,0.33 v 0 h -3.62 l -0.01,-0.54 h 0.37 v 0 q 0.52,0 0.63,-0.08 v 0 0 q 0.11,-0.09 0.11,-0.54 v 0 -7.11 0 q 0,-0.37 -0.1,-0.43 v 0 0 q -0.11,-0.07 -0.62,-0.07 v 0 z m 2.44,0.75 v 6.83 0 q 0,0.45 0.16,0.55 v 0 0 q 0.16,0.1 1.03,0.1 v 0 0 q 1.05,0 1.85,-0.26 v 0 0 q 0.85,-0.26 1.29,-0.62 v 0 0 q 0.49,-0.41 0.79,-0.94 v 0 0 q 0.31,-0.53 0.44,-1.09 v 0 0 q 0.12,-0.55 0.12,-1.14 v 0 0 q 0,-0.79 -0.27,-1.48 v 0 0 q -0.26,-0.69 -0.79,-1.29 v 0 0 q -0.53,-0.59 -1.44,-0.96 v 0 0 q -0.92,-0.36 -2.09,-0.36 v 0 h -0.52 v 0 q -0.36,0 -0.46,0.12 v 0 0 q -0.11,0.14 -0.11,0.54 z m 24.77,0.96 -0.5,-0.02 v 0 q 0.12,-1.16 0.2,-2.25 v 0 h 8.08 v 0 q -0.08,1.05 -0.11,1.45 v 0 0 q -0.04,0.73 -0.06,0.79 v 0 l -0.5,-0.02 v 0 q 0.08,-0.96 0.08,-1.14 v 0 0 q 0,-0.28 -0.14,-0.37 v 0 0 q -0.17,-0.1 -0.57,-0.1 v 0 h -1.61 v 0 q -0.51,0 -0.63,0.1 v 0 0 q -0.09,0.08 -0.1,0.57 v 0 6.86 0 q 0,0.44 0.14,0.54 v 0 0 q 0.16,0.11 0.67,0.11 v 0 h 0.56 l 0.02,0.54 -3.69,-0.01 v -0.53 h 0.21 v 0 q 0.67,0 0.82,-0.08 v 0 0 q 0.14,-0.09 0.14,-0.51 v 0 -6.8 0 q 0,-0.56 -0.1,-0.68 v 0 0 q -0.1,-0.11 -0.52,-0.11 v 0 h -1.47 v 0 q -0.19,0 -0.25,0.02 v 0 0 q -0.07,0.01 -0.18,0.01 v 0 0 q -0.03,0 -0.14,0.07 v 0 0 q -0.09,0.05 -0.11,0.07 v 0 0 q -0.03,0.02 -0.07,0.13 v 0 0 q -0.03,0.06 -0.06,0.15 v 0 0 q -0.02,0.07 -0.05,0.22 v 0 0 q -0.02,0.23 -0.02,0.25 v 0 0 q 0,0.19 -0.02,0.34 v 0 0 q 0,0.07 0,0.2 v 0 0 q -0.01,0.14 -0.02,0.2 z m 15.9,2.48 v 0 0 q 0,-1.21 0.41,-2.15 v 0 0 q 0.41,-0.96 1.1,-1.56 v 0 0 q 0.7,-0.61 1.56,-0.93 v 0 0 q 0.84,-0.31 1.79,-0.31 v 0 0 q 1.26,0 2.31,0.52 v 0 0 q 1.08,0.53 1.79,1.67 v 0 0 q 0.7,1.1 0.7,2.68 v 0 0 q 0,0.95 -0.3,1.79 v 0 0 q -0.31,0.84 -0.92,1.56 v 0 0 q -0.6,0.71 -1.54,1.12 v 0 0 q -0.96,0.41 -2.15,0.42 v 0 0 q -1.14,0 -2.07,-0.41 v 0 0 q -0.94,-0.4 -1.5,-1.09 v 0 0 q -0.57,-0.69 -0.87,-1.54 v 0 0 q -0.31,-0.88 -0.31,-1.77 z m 1.26,-0.45 v 0 0 q 0,1.14 0.43,2.22 v 0 0 q 0.41,1.04 1.34,1.73 v 0 0 q 0.9,0.7 2.09,0.71 v 0 0 q 1.38,0 2.31,-1.03 v 0 0 q 0.95,-1.04 0.95,-2.91 v 0 0 q 0,-2.11 -1.16,-3.38 v 0 0 q -1.15,-1.26 -2.66,-1.27 v 0 0 q -0.52,0 -1.06,0.2 v 0 0 q -0.54,0.2 -1.05,0.6 v 0 0 q -0.55,0.43 -0.87,1.23 v 0 0 q -0.32,0.79 -0.32,1.9 z m 16.85,-3.74 h -0.39 l 0.02,-0.56 h 3.22 v 0 q 1.13,0 1.73,0.13 v 0 0 q 0.64,0.16 1.11,0.54 v 0 0 q 1,0.82 1,1.96 v 0 0 q 0,0.72 -0.47,1.33 v 0 0 q -0.49,0.62 -1.52,0.88 v 0 l 2.69,3.57 v 0 q 0.3,0.38 0.6,0.38 v 0 h 0.6 l 0.03,0.54 h -2.03 l -3,-4.31 h -0.17 v 0 q -0.04,0 -0.1,0.01 v 0 0 q -0.05,0 -0.06,0 v 0 0 q -0.89,0 -1.28,-0.08 v 0 3.43 0 q 0,0.3 0.14,0.35 v 0 0 q 0.12,0.06 0.83,0.06 v 0 h 0.71 l -0.03,0.54 h -3.72 v -0.54 h 0.32 v 0 q 0.46,0 0.53,-0.06 v 0 0 q 0.08,-0.07 0.08,-0.35 v 0 -7.32 0 q 0,-0.32 -0.19,-0.41 v 0 0 q -0.22,-0.09 -0.65,-0.09 z m 1.98,0.64 v 3.29 0 q 0.18,0.13 0.89,0.14 v 0 0 q 1.27,0 1.86,-0.44 v 0 0 q 0.58,-0.43 0.58,-1.35 v 0 0 q 0,-1 -0.77,-1.65 v 0 0 q -0.76,-0.63 -2.14,-0.63 v 0 0 q -0.25,0 -0.33,0.11 v 0 0 q -0.09,0.09 -0.09,0.53 z m 14.72,-0.64 h -0.39 l 0.02,-0.56 h 3.22 v 0 q 1.13,0 1.73,0.13 v 0 0 q 0.65,0.16 1.11,0.54 v 0 0 q 1,0.82 1,1.96 v 0 0 q 0,0.72 -0.47,1.33 v 0 0 q -0.49,0.62 -1.52,0.88 v 0 l 2.69,3.57 v 0 q 0.3,0.38 0.6,0.38 v 0 h 0.6 l 0.03,0.54 h -2.03 l -3,-4.31 h -0.17 v 0 q -0.04,0 -0.1,0.01 v 0 0 q -0.05,0 -0.06,0 v 0 0 q -0.89,0 -1.28,-0.08 v 0 3.43 0 q 0,0.3 0.14,0.35 v 0 0 q 0.12,0.06 0.83,0.06 v 0 h 0.71 l -0.03,0.54 h -3.72 v -0.54 h 0.32 v 0 q 0.46,0 0.53,-0.06 v 0 0 q 0.08,-0.07 0.08,-0.35 v 0 -7.32 0 q 0,-0.32 -0.19,-0.41 v 0 0 q -0.22,-0.09 -0.65,-0.09 z m 1.98,0.64 v 3.29 0 q 0.18,0.13 0.89,0.14 v 0 0 q 1.28,0 1.86,-0.44 v 0 0 q 0.58,-0.43 0.58,-1.35 v 0 0 q 0,-1 -0.77,-1.65 v 0 0 q -0.76,-0.63 -2.14,-0.63 v 0 0 q -0.25,0 -0.33,0.11 v 0 0 q -0.09,0.09 -0.09,0.53 z m 14.4,-0.64 -0.01,-0.56 h 7.21 v 0 q 0.01,1.06 0.07,2.2 v 0 l -0.55,0.02 v 0 q -0.01,-0.64 -0.07,-1.05 v 0 0 Q 220.97,3.89 220.92,3.8 v 0 0 q -0.06,-0.09 -0.17,-0.11 v 0 0 q -0.1,-0.01 -0.69,-0.01 v 0 h -2.38 v 0 q -0.54,0 -0.69,0.09 v 0 0 q -0.12,0.09 -0.12,0.56 v 0 1.95 0 q 0,0.41 0.05,0.48 v 0 0 q 0.07,0.08 0.41,0.08 v 0 h 2.12 v 0 q 0.36,0 0.44,-0.11 v 0 0 q 0.08,-0.1 0.09,-0.59 v 0 -0.53 l 0.51,0.02 v 3.34 h -0.51 v -0.73 0 q 0,-0.58 -0.07,-0.67 v 0 0 q -0.09,-0.11 -0.44,-0.11 v 0 h -2.09 v 0 q -0.34,0 -0.42,0.08 v 0 0 q -0.09,0.09 -0.09,0.35 v 0 3.31 0 q 0,0.37 0.09,0.47 v 0 0 q 0.08,0.1 0.35,0.1 v 0 0 q 2.92,-0.02 3.45,-0.08 v 0 0 q 0.52,-0.06 0.6,-0.31 v 0 l 0.01,-0.02 0.01,-0.01 0.22,-1.18 0.48,0.08 -0.35,2.16 h -7.1 V 11.87 H 215 v 0 q 0.56,0 0.64,-0.07 v 0 0 q 0.1,-0.08 0.1,-0.47 v 0 -7.09 0 q 0,-0.42 -0.16,-0.51 v 0 0 q -0.17,-0.09 -0.82,-0.09 v 0 z m 15.61,0 -0.02,-0.56 h 2.18 l 5.73,7.4 v -6.34 0 q 0,-0.33 -0.15,-0.42 v 0 0 Q 237.56,3.64 237.1,3.64 v 0 h -0.49 l 0.02,-0.56 h 2.98 v 0.56 h -0.32 v 0 q -0.46,0 -0.61,0.11 v 0 0 q -0.15,0.11 -0.15,0.5 v 0 8.07 0.15 0 q 0,0.05 -0.02,0.1 v 0 0 q -0.01,0.04 -0.05,0.07 v 0 0 q -0.01,0.01 -0.06,0.01 v 0 h -0.19 -0.07 -0.02 l -0.03,-0.01 v 0 q -0.03,0 -0.04,-0.01 v 0 0 q -0.02,-0.02 -0.02,-0.03 v 0 0 q 0,-0.02 -0.01,-0.03 v 0 0 q -0.03,-0.03 -0.05,-0.07 v 0 0 q -0.02,-0.02 -0.04,-0.05 v 0 0 q -0.02,-0.04 -0.03,-0.05 v 0 l -6.11,-7.84 0.07,6.66 v 0 q 0,0.45 0.17,0.55 v 0 0 q 0.15,0.1 0.86,0.1 v 0 h 0.24 v 0.54 h -2.94 v -0.54 h 0.43 v 0 q 0.37,0 0.48,-0.11 v 0 0 q 0.1,-0.1 0.11,-0.51 v 0 -7.45 l -0.15,-0.16 z m 17.66,1.71 -0.5,-0.02 v 0 q 0.13,-1.16 0.21,-2.25 v 0 h 8.08 v 0 q -0.08,1.05 -0.11,1.45 v 0 0 q -0.04,0.73 -0.06,0.79 v 0 l -0.5,-0.02 v 0 q 0.08,-0.96 0.08,-1.14 v 0 0 q 0,-0.28 -0.14,-0.37 v 0 0 q -0.17,-0.1 -0.58,-0.1 v 0 h -1.6 v 0 q -0.51,0 -0.63,0.1 v 0 0 q -0.1,0.08 -0.11,0.57 v 0 6.86 0 q 0,0.44 0.15,0.54 v 0 0 q 0.16,0.11 0.67,0.11 v 0 h 0.56 l 0.01,0.54 -3.69,-0.01 v -0.53 h 0.22 v 0 q 0.67,0 0.81,-0.08 v 0 0 q 0.15,-0.09 0.15,-0.51 v 0 -6.8 0 q 0,-0.56 -0.1,-0.68 v 0 0 q -0.1,-0.11 -0.53,-0.11 v 0 h -1.47 v 0 q -0.18,0 -0.25,0.02 v 0 0 q -0.07,0.01 -0.18,0.01 v 0 0 q -0.02,0 -0.14,0.07 v 0 0 q -0.08,0.05 -0.11,0.07 v 0 0 q -0.03,0.02 -0.07,0.13 v 0 0 q -0.02,0.06 -0.05,0.15 v 0 0 q -0.03,0.07 -0.05,0.22 v 0 0 q -0.03,0.23 -0.03,0.25 v 0 0 q 0,0.19 -0.01,0.34 v 0 0 q 0,0.07 -0.01,0.2 v 0 0 q 0,0.14 -0.02,0.2 z m 25.48,2.67 v 0 0 q 0,-1.16 0.47,-2.19 v 0 0 q 0.47,-0.98 1.22,-1.56 v 0 0 q 0.74,-0.58 1.64,-0.9 v 0 0 q 0.89,-0.32 1.73,-0.32 v 0 0 q 0.87,0 1.54,0.11 v 0 0 q 0.63,0.1 0.93,0.21 v 0 0 q 0.3,0.11 0.34,0.11 v 0 0 q 0.17,0 0.19,-0.07 v 0 0 q 0.03,-0.08 0.03,-0.32 v 0 -0.12 h 0.53 v 0 q 0.04,1.33 0.17,2.67 v 0 l -0.51,0.01 v 0 Q 281.37,5.4 281.35,5.26 v 0 0 q 0,-0.06 0,-0.13 v 0 0 q -0.01,-0.06 -0.02,-0.11 v 0 0 q 0,-0.04 0,-0.07 v 0 0 Q 281.3,4.84 281.3,4.74 v 0 0 q 0,-0.06 -0.04,-0.15 v 0 0 q 0,-0.02 -0.03,-0.04 v 0 0 Q 281.2,4.52 281.2,4.5 v 0 0 q -0.03,-0.06 -0.1,-0.09 v 0 0 q -0.04,-0.03 -0.07,-0.04 v 0 0 Q 281,4.36 280.98,4.35 v 0 0 q -0.02,0 -0.04,-0.02 v 0 0 q -0.02,-0.02 -0.06,-0.04 v 0 0 q -0.05,-0.02 -0.09,-0.04 v 0 0 q -0.22,-0.09 -0.25,-0.11 v 0 0 q -0.35,-0.18 -0.99,-0.31 v 0 0 q -0.67,-0.12 -1.33,-0.12 v 0 0 q -1.73,0 -2.82,1.13 v 0 0 q -1.11,1.15 -1.1,2.78 v 0 0 q 0,1.73 1.22,3.07 v 0 0 q 1.2,1.33 3.02,1.33 v 0 0 q 1,0 1.95,-0.53 v 0 0 q 0.95,-0.55 0.97,-0.91 v 0 l 0.04,-1.17 h 0.5 l -0.09,2.04 v 0 q -0.06,0.04 -0.19,0.12 v 0 0 q -0.06,0.03 -0.52,0.28 v 0 0 q -0.38,0.2 -0.82,0.38 v 0 0 q -0.37,0.16 -1.02,0.28 v 0 0 q -0.6,0.12 -1.17,0.13 v 0 0 q -2.38,0 -3.74,-1.25 v 0 0 q -1.34,-1.25 -1.34,-3.37 z m 17.41,-4.38 h -0.49 l 0.01,-0.56 h 3.59 V 3.64 H 293 v 0 q -0.38,0 -0.49,0.08 v 0 0 q -0.12,0.08 -0.12,0.44 v 0 7.06 0 q 0,0.35 0.09,0.45 v 0 0 q 0.08,0.1 0.38,0.1 v 0 0 q 2.87,-0.03 3.53,-0.14 v 0 0 q 0.21,-0.02 0.29,-0.24 v 0 0 q 0.08,-0.22 0.28,-1.34 v 0 l 0.49,0.03 -0.46,2.33 h -6.76 l -0.02,-0.54 h 0.39 v 0 q 0.51,0 0.58,-0.07 v 0 0 q 0.08,-0.08 0.09,-0.47 v 0 -7.24 0 q 0,-0.29 -0.16,-0.37 v 0 0 q -0.15,-0.08 -0.59,-0.08 z m 15.25,0 h -0.59 l 0.02,-0.56 h 3.51 v 0.56 h -0.23 v 0 q -0.55,0 -0.72,0.09 v 0 0 q -0.14,0.08 -0.14,0.55 v 0 6.94 0 q 0,0.46 0.11,0.55 v 0 0 q 0.11,0.1 0.65,0.1 v 0 h 0.54 l 0.02,0.54 h -3.59 l -0.01,-0.54 h 0.36 v 0 q 0.56,0 0.68,-0.1 v 0 0 q 0.11,-0.1 0.11,-0.52 v 0 -7.11 0 q 0,-0.37 -0.1,-0.43 v 0 0 q -0.11,-0.07 -0.62,-0.07 z m 10.92,0 -0.02,-0.56 h 7.22 v 0 q 0.01,1.06 0.07,2.2 v 0 l -0.55,0.02 v 0 q -0.02,-0.64 -0.07,-1.05 v 0 0 Q 323.3,3.89 323.24,3.8 v 0 0 q -0.05,-0.09 -0.17,-0.11 v 0 0 q -0.09,-0.01 -0.68,-0.01 v 0 h -2.38 v 0 q -0.55,0 -0.69,0.09 v 0 0 q -0.12,0.09 -0.12,0.56 v 0 1.95 0 q 0,0.41 0.05,0.48 v 0 0 q 0.07,0.08 0.41,0.08 v 0 h 2.11 v 0 q 0.37,0 0.45,-0.11 v 0 0 q 0.08,-0.1 0.09,-0.59 v 0 -0.53 l 0.51,0.02 v 3.34 h -0.51 v -0.73 0 q 0,-0.58 -0.08,-0.67 v 0 0 Q 322.15,7.46 321.8,7.46 v 0 h -2.1 v 0 q -0.33,0 -0.42,0.08 v 0 0 q -0.08,0.09 -0.08,0.35 v 0 3.31 0 q 0,0.37 0.08,0.47 v 0 0 q 0.09,0.1 0.36,0.1 v 0 0 q 2.92,-0.02 3.45,-0.08 v 0 0 q 0.52,-0.06 0.6,-0.31 v 0 l 0.01,-0.02 v -0.01 l 0.23,-1.18 0.48,0.08 -0.35,2.16 h -7.1 v -0.54 h 0.36 v 0 q 0.56,0 0.65,-0.07 v 0 0 q 0.09,-0.08 0.09,-0.47 v 0 -7.09 0 q 0,-0.42 -0.15,-0.51 v 0 0 q -0.17,-0.09 -0.83,-0.09 v 0 z m 15.6,0 -0.01,-0.56 h 2.18 l 5.73,7.4 v -6.34 0 q 0,-0.33 -0.15,-0.42 v 0 0 q -0.16,-0.08 -0.62,-0.08 v 0 h -0.49 l 0.03,-0.56 h 2.98 v 0.56 h -0.32 v 0 q -0.47,0 -0.62,0.11 v 0 0 q -0.15,0.11 -0.15,0.5 v 0 8.07 0.15 0 q 0,0.05 -0.01,0.1 v 0 0 q -0.01,0.04 -0.05,0.07 v 0 0 q -0.01,0.01 -0.07,0.01 v 0 h -0.19 -0.06 -0.03 l -0.02,-0.01 v 0 q -0.03,0 -0.04,-0.01 v 0 0 q -0.02,-0.02 -0.02,-0.03 v 0 0 q 0,-0.02 -0.01,-0.03 v 0 0 q -0.03,-0.03 -0.06,-0.07 v 0 0 q -0.01,-0.02 -0.03,-0.05 v 0 0 q -0.02,-0.04 -0.04,-0.05 v 0 l -6.1,-7.84 0.07,6.66 v 0 q 0,0.45 0.16,0.55 v 0 0 q 0.16,0.1 0.87,0.1 v 0 h 0.24 v 0.54 h -2.94 v -0.54 h 0.42 v 0 q 0.38,0 0.49,-0.11 v 0 0 q 0.1,-0.1 0.1,-0.51 v 0 -7.45 l -0.14,-0.16 z m 17.67,1.71 -0.5,-0.02 v 0 q 0.12,-1.16 0.21,-2.25 v 0 h 8.08 v 0 q -0.09,1.05 -0.11,1.45 v 0 0 q -0.05,0.73 -0.07,0.79 v 0 L 357.08,5.3 v 0 q 0.08,-0.96 0.08,-1.14 v 0 0 q 0,-0.28 -0.15,-0.37 v 0 0 q -0.17,-0.1 -0.57,-0.1 v 0 h -1.61 v 0 q -0.5,0 -0.63,0.1 v 0 0 q -0.09,0.08 -0.1,0.57 v 0 6.86 0 q 0,0.44 0.15,0.54 v 0 0 q 0.15,0.11 0.67,0.11 v 0 h 0.56 l 0.01,0.54 -3.69,-0.01 v -0.53 h 0.22 v 0 q 0.67,0 0.81,-0.08 v 0 0 q 0.14,-0.09 0.14,-0.51 v 0 -6.8 0 q 0,-0.56 -0.1,-0.68 v 0 0 q -0.09,-0.11 -0.52,-0.11 v 0 h -1.47 v 0 q -0.18,0 -0.25,0.02 v 0 0 q -0.07,0.01 -0.18,0.01 v 0 0 q -0.03,0 -0.14,0.07 v 0 0 q -0.08,0.05 -0.11,0.07 v 0 0 q -0.03,0.02 -0.07,0.13 v 0 0 q -0.03,0.06 -0.05,0.15 v 0 0 q -0.03,0.07 -0.05,0.22 v 0 0 Q 350,4.59 350,4.61 v 0 0 q 0,0.19 -0.01,0.34 v 0 0 q 0,0.07 -0.01,0.2 v 0 0 q -0.01,0.14 -0.02,0.2 z m 16.69,6.59 v 0 0 q 0,-0.14 0.23,-0.37 v 0 0 q 0.24,-0.22 0.37,-0.22 v 0 0 q 0.17,0 0.38,0.22 v 0 0 q 0.21,0.24 0.2,0.38 v 0 0 q 0,0.16 -0.22,0.38 v 0 0 q -0.22,0.22 -0.38,0.22 v 0 0 q -0.13,0 -0.36,-0.22 v 0 0 q -0.22,-0.22 -0.22,-0.39 z m 0.01,-8.21 v 0 0 q 0,-0.26 0.35,-0.36 v 0 0 q 0.34,-0.1 0.57,-0.1 v 0 0 q 0.19,0 0.19,0.15 v 0 0 q -0.03,1 -0.19,2.75 v 0 0 q -0.18,1.98 -0.19,2.69 v 0 0.38 0 q 0,0.06 -0.01,0.18 v 0 0 q 0,0.11 0,0.14 v 0 0.25 0 q 0,0.12 -0.03,0.21 v 0 0 q 0,0.02 -0.01,0.07 v 0 0 q -0.02,0.05 -0.03,0.07 v 0 0 q -0.03,0.07 -0.08,0.1 v 0 0 q -0.05,0.03 -0.09,0.03 v 0 0 q -0.06,0 -0.1,-0.04 v 0 0 q -0.05,-0.04 -0.07,-0.12 v 0 0 q -0.02,-0.01 -0.02,-0.05 v 0 0 q 0,-0.04 -0.01,-0.07 v 0 0 q -0.03,-0.08 -0.03,-0.16 v 0 -0.07 0 q -0.25,-3.13 -0.25,-6.05 z"
       id="path18" />
  </g>
</svg>
